<svg width="38" height="36" viewBox="0 0 38 36" fill="none" xmlns="http://www.w3.org/2000/svg">
<path d="M36.5137 8.49334H6.18876V5.29226C6.18876 5.12246 6.12356 4.95962 6.0075 4.83955C5.89143 4.71949 5.73402 4.65204 5.56988 4.65204H3.09438C2.2737 4.65204 1.48663 4.98929 0.906323 5.58961C0.326014 6.18993 0 7.00414 0 7.85312V32.1814C0 33.0303 0.326014 33.8445 0.906323 34.4449C1.48663 35.0452 2.2737 35.3824 3.09438 35.3824H36.5137C36.6778 35.3824 36.8352 35.315 36.9513 35.1949C37.0674 35.0749 37.1326 34.912 37.1326 34.7422V9.13355C37.1326 8.96376 37.0674 8.80092 36.9513 8.68085C36.8352 8.56079 36.6778 8.49334 36.5137 8.49334ZM1.23775 7.85312C1.23922 7.3442 1.4353 6.85656 1.78317 6.4967C2.13104 6.13683 2.60242 5.93399 3.09438 5.93247H4.95101V28.9803H3.09438C2.42474 28.9796 1.77306 29.2043 1.23775 29.6205V7.85312ZM33.4193 34.102H29.7061V31.5411H32.1816V30.2607H29.7061V28.9803H30.9438V27.6998H29.7061V26.4194H30.9438V25.139H29.7061V23.8585H32.1816V22.5781H29.7061V21.2977H30.9438V20.0172H29.7061V18.7368H30.9438V17.4564H29.7061V16.1759H32.1816V14.8955H29.7061V12.3346H33.4193V34.102ZM35.8948 34.102H34.6571V11.6944C34.6571 11.5246 34.5919 11.3618 34.4758 11.2417C34.3597 11.1217 34.2023 11.0542 34.0382 11.0542H29.0872C28.923 11.0542 28.7656 11.1217 28.6496 11.2417C28.5335 11.3618 28.4683 11.5246 28.4683 11.6944V34.102H3.09438C2.60197 34.102 2.12973 33.8996 1.78155 33.5395C1.43336 33.1793 1.23775 32.6907 1.23775 32.1814C1.23775 31.672 1.43336 31.1834 1.78155 30.8232C2.12973 30.4631 2.60197 30.2607 3.09438 30.2607H5.56988C5.73402 30.2607 5.89143 30.1933 6.0075 30.0732C6.12356 29.9531 6.18876 29.7903 6.18876 29.6205V9.77377H35.8948V34.102Z" fill="white"/>
<path d="M10.5208 7.21296H27.2305C27.317 7.21298 27.4026 7.19423 27.4817 7.1579L33.0516 4.59703C33.1611 4.54677 33.2541 4.46473 33.3194 4.36086C33.3847 4.25699 33.4194 4.13577 33.4194 4.01187C33.4194 3.88798 33.3847 3.76675 33.3194 3.66289C33.2541 3.55902 33.1611 3.47698 33.0516 3.42672L27.4817 0.86585C27.4026 0.829522 27.317 0.810765 27.2305 0.810791H10.5208C9.70015 0.810791 8.91308 1.14805 8.33278 1.74837C7.75247 2.34869 7.42645 3.16289 7.42645 4.01187C7.42645 4.86085 7.75247 5.67506 8.33278 6.27538C8.91308 6.8757 9.70015 7.21296 10.5208 7.21296ZM14.2341 4.65209H26.6116V5.93252H14.2341V4.65209ZM27.8494 2.4363L29.0871 3.00545V5.01829L27.8494 5.58745V2.4363ZM26.6116 3.37166H14.2341V2.09122H26.6116V3.37166ZM12.9963 5.93252H12.3775V2.09122H12.9963V5.93252ZM30.3249 4.44914V3.57461L31.2767 4.01187L30.3249 4.44914ZM10.5208 2.09122H11.1397V5.93252H10.5208C10.0284 5.93252 9.55618 5.73017 9.208 5.36998C8.85981 5.00979 8.6642 4.52126 8.6642 4.01187C8.6642 3.50249 8.85981 3.01396 9.208 2.65377C9.55618 2.29358 10.0284 2.09122 10.5208 2.09122Z" fill="white"/>
<path d="M9.19524 23.8523L10.8551 24.0975C10.9673 24.4584 11.1076 24.8094 11.2747 25.1468L10.2696 26.5335C10.1803 26.6568 10.1369 26.8093 10.1475 26.963C10.158 27.1167 10.2218 27.2613 10.3272 27.3703L12.0773 29.1808C12.1827 29.2898 12.3225 29.3558 12.471 29.3667C12.6196 29.3777 12.767 29.3328 12.8862 29.2404L14.2267 28.2007C14.5529 28.3735 14.8921 28.5186 15.241 28.6347L15.4781 30.3518C15.4992 30.5043 15.5728 30.6438 15.6854 30.7447C15.7979 30.8456 15.9418 30.9011 16.0908 30.9011H18.5663C18.7152 30.9011 18.8591 30.8456 18.9717 30.7447C19.0842 30.6438 19.1578 30.5043 19.179 30.3518L19.416 28.6347C19.7649 28.5186 20.1041 28.3735 20.4303 28.2007L21.7708 29.2404C21.89 29.3328 22.0374 29.3777 22.186 29.3667C22.3346 29.3558 22.4743 29.2898 22.5797 29.1808L24.3299 27.3703C24.4352 27.2613 24.499 27.1167 24.5096 26.963C24.5201 26.8093 24.4768 26.6568 24.3874 26.5335L23.3824 25.1468C23.5494 24.8094 23.6897 24.4584 23.802 24.0975L25.4618 23.8523C25.6092 23.8304 25.744 23.7543 25.8416 23.6379C25.9391 23.5215 25.9928 23.3726 25.9928 23.2185V20.6576C25.9928 20.5036 25.9391 20.3547 25.8416 20.2383C25.744 20.1218 25.6092 20.0457 25.4618 20.0238L23.802 19.7786C23.6897 19.4177 23.5494 19.0668 23.3824 18.7293L24.3874 17.3426C24.4768 17.2193 24.5201 17.0668 24.5096 16.9131C24.499 16.7594 24.4352 16.6148 24.3299 16.5058L22.5797 14.6953C22.4743 14.5863 22.3346 14.5203 22.186 14.5094C22.0374 14.4985 21.89 14.5433 21.7708 14.6358L20.4303 15.6755C20.1041 15.5027 19.7649 15.3575 19.416 15.2414L19.179 13.5243C19.1578 13.3718 19.0842 13.2323 18.9717 13.1314C18.8591 13.0305 18.7152 12.975 18.5663 12.975H16.0908C15.9418 12.975 15.7979 13.0305 15.6854 13.1314C15.5728 13.2323 15.4992 13.3718 15.4781 13.5243L15.241 15.2414C14.8921 15.3575 14.5529 15.5027 14.2267 15.6755L12.8862 14.6358C12.767 14.5433 12.6196 14.4985 12.471 14.5094C12.3225 14.5203 12.1827 14.5863 12.0773 14.6953L10.3272 16.5058C10.2218 16.6148 10.158 16.7594 10.1475 16.9131C10.1369 17.0668 10.1803 17.2193 10.2696 17.3426L11.2747 18.7293C11.1076 19.0668 10.9673 19.4177 10.8551 19.7786L9.19524 20.0238C9.04783 20.0457 8.91298 20.1218 8.81544 20.2383C8.71791 20.3547 8.66423 20.5036 8.66425 20.6576V23.2185C8.66423 23.3726 8.71791 23.5215 8.81544 23.6379C8.91298 23.7543 9.04783 23.8304 9.19524 23.8523ZM9.902 21.2127L11.4263 20.9873C11.5476 20.9695 11.6611 20.9147 11.7523 20.83C11.8436 20.7453 11.9084 20.6345 11.9387 20.5117C12.0688 19.9815 12.272 19.4735 12.5421 19.0033C12.6047 18.8943 12.6346 18.7685 12.628 18.6418C12.6214 18.5152 12.5786 18.3935 12.505 18.292L11.5816 17.018L12.5718 15.9937L13.8034 16.9489C13.9014 17.025 14.0191 17.0693 14.1415 17.0761C14.2639 17.083 14.3856 17.052 14.491 16.9873C14.9455 16.7078 15.4365 16.4976 15.949 16.3631C16.0678 16.3317 16.1749 16.2646 16.2568 16.1703C16.3386 16.0759 16.3916 15.9585 16.4089 15.833L16.6273 14.2555H18.0297L18.2475 15.8323C18.2648 15.9579 18.3178 16.0753 18.3996 16.1696C18.4815 16.264 18.5886 16.3311 18.7074 16.3624C19.2199 16.497 19.7109 16.7072 20.1654 16.9866C20.2708 17.0514 20.3925 17.0823 20.5149 17.0755C20.6373 17.0686 20.755 17.0243 20.853 16.9482L22.0846 15.993L23.0748 17.0174L22.1514 18.2914C22.0778 18.3928 22.035 18.5146 22.0284 18.6412C22.0218 18.7678 22.0517 18.8936 22.1143 19.0027C22.3844 19.4729 22.5876 19.9809 22.7177 20.511C22.748 20.6339 22.8128 20.7447 22.9041 20.8294C22.9953 20.9141 23.1088 20.9688 23.2301 20.9867L24.755 21.2127V22.6634L23.2307 22.8888C23.1094 22.9067 22.9959 22.9614 22.9047 23.0461C22.8134 23.1308 22.7486 23.2416 22.7183 23.3645C22.5883 23.8946 22.385 24.4026 22.1149 24.8728C22.0523 24.9819 22.0224 25.1077 22.029 25.2343C22.0356 25.3609 22.0784 25.4827 22.152 25.5841L23.0754 26.8581L22.0852 27.8825L20.8561 26.9279C20.7581 26.8518 20.6404 26.8075 20.518 26.8007C20.3955 26.7938 20.2739 26.8247 20.1685 26.8895C19.714 27.169 19.2229 27.3792 18.7105 27.5137C18.5917 27.545 18.4846 27.6121 18.4027 27.7065C18.3208 27.8009 18.2679 27.9183 18.2506 28.0438L18.0297 29.6207H16.6273L16.4095 28.0438C16.3922 27.9183 16.3393 27.8009 16.2574 27.7065C16.1755 27.6121 16.0684 27.545 15.9497 27.5137C15.4372 27.3792 14.9461 27.169 14.4916 26.8895C14.3862 26.8247 14.2646 26.7938 14.1422 26.8007C14.0197 26.8075 13.9021 26.8518 13.804 26.9279L12.5724 27.8831L11.5822 26.8588L12.5056 25.5847C12.5792 25.4833 12.622 25.3616 12.6286 25.2349C12.6352 25.1083 12.6053 24.9825 12.5427 24.8735C12.2726 24.4033 12.0694 23.8953 11.9393 23.3651C11.9091 23.2422 11.8442 23.1314 11.753 23.0468C11.6617 22.9621 11.5483 22.9073 11.4269 22.8894L9.902 22.6634V21.2127Z" fill="white"/>
<path d="M17.3284 25.7793C18.0628 25.7793 18.7807 25.554 19.3913 25.1319C20.002 24.7098 20.4779 24.1099 20.759 23.408C21.04 22.7061 21.1136 21.9337 20.9703 21.1886C20.827 20.4434 20.4733 19.759 19.954 19.2218C19.4347 18.6846 18.7731 18.3187 18.0528 18.1705C17.3325 18.0223 16.5859 18.0983 15.9074 18.3891C15.2289 18.6798 14.6489 19.1722 14.2409 19.8039C13.8329 20.4356 13.6151 21.1782 13.6151 21.938C13.6161 22.9564 14.0076 23.9329 14.7038 24.6531C15.3999 25.3732 16.3439 25.7783 17.3284 25.7793ZM17.3284 19.3771C17.818 19.3771 18.2966 19.5273 18.7037 19.8087C19.1108 20.0901 19.4281 20.49 19.6154 20.958C19.8028 21.4259 19.8518 21.9408 19.7563 22.4376C19.6608 22.9343 19.425 23.3906 19.0788 23.7488C18.7326 24.1069 18.2915 24.3508 17.8113 24.4496C17.3311 24.5485 16.8334 24.4977 16.381 24.3039C15.9287 24.1101 15.5421 23.7819 15.2701 23.3607C14.998 22.9396 14.8529 22.4445 14.8529 21.938C14.8529 21.2588 15.1137 20.6074 15.5779 20.1272C16.0422 19.6469 16.6718 19.3771 17.3284 19.3771Z" fill="white"/>
</svg>
