<svg width="38" height="40" viewBox="0 0 38 40" fill="none" xmlns="http://www.w3.org/2000/svg">
<path d="M29.706 38.1174H18.5662V39.3979H29.706C30.4597 39.3982 31.1876 39.1136 31.7526 38.5976L30.9338 37.6373C30.5947 37.9466 30.1581 38.1174 29.706 38.1174Z" fill="white"/>
<path d="M32.621 6.29232L27.67 1.17059C27.552 1.05266 27.3947 0.986188 27.2306 0.984924H7.42659C6.60591 0.984924 5.81885 1.32218 5.23854 1.9225C4.65823 2.52282 4.33221 3.33703 4.33221 4.18601V23.3925H5.56997V4.18601C5.57144 3.67709 5.76752 3.18944 6.11538 2.82958C6.46325 2.46972 6.93464 2.26688 7.42659 2.26536H26.6118V5.46644C26.6132 5.97536 26.8093 6.463 27.1572 6.82287C27.505 7.18273 27.9764 7.38557 28.4684 7.38709H31.5628V21.4719H32.8005V6.74687C32.7993 6.57714 32.735 6.4144 32.621 6.29232ZM28.4684 6.10666C28.3042 6.10666 28.1468 6.03921 28.0308 5.91914C27.9147 5.79908 27.8495 5.63624 27.8495 5.46644V3.16806L30.6901 6.10666H28.4684Z" fill="white"/>
<path d="M34.0383 30.4351H18.5664C18.4449 30.4348 18.3261 30.4727 18.226 30.5439L16.5241 31.7155H15.472C14.9796 31.7155 14.5073 31.9178 14.1591 32.278C13.811 32.6382 13.6154 33.1268 13.6154 33.6361C13.6154 34.1455 13.811 34.6341 14.1591 34.9942C14.5073 35.3544 14.9796 35.5568 15.472 35.5568H16.5241L18.226 36.7284C18.3261 36.7996 18.4449 36.8375 18.5664 36.8372H34.0383C34.8589 36.8372 35.646 36.5 36.2263 35.8996C36.8066 35.2993 37.1326 34.4851 37.1326 33.6361C37.1326 32.7872 36.8066 31.973 36.2263 31.3726C35.646 30.7723 34.8589 30.4351 34.0383 30.4351ZM16.0909 34.2764H15.472C15.3078 34.2764 15.1504 34.2089 15.0344 34.0888C14.9183 33.9688 14.8531 33.8059 14.8531 33.6361C14.8531 33.4663 14.9183 33.3035 15.0344 33.1834C15.1504 33.0634 15.3078 32.9959 15.472 32.9959H16.0909V34.2764ZM18.5664 35.4287L17.3286 34.5709V32.7014L18.5664 31.8435V35.4287ZM30.325 35.5568H19.8041V34.2764H30.325V35.5568ZM30.325 32.9959H19.8041V31.7155H30.325V32.9959ZM32.1816 35.5568H31.5628V31.7155H32.1816V35.5568ZM34.0383 35.5568H33.4194V31.7155H34.0383C34.5307 31.7155 35.0029 31.9178 35.3511 32.278C35.6993 32.6382 35.8949 33.1268 35.8949 33.6361C35.8949 34.1455 35.6993 34.6341 35.3511 34.9942C35.0029 35.3544 34.5307 35.5568 34.0383 35.5568Z" fill="white"/>
<path d="M36.5138 22.7523H14.2342C14.0701 22.7523 13.9127 22.8197 13.7966 22.9398C13.6806 23.0598 13.6154 23.2227 13.6154 23.3925V28.5142C13.6154 28.684 13.6806 28.8468 13.7966 28.9669C13.9127 29.087 14.0701 29.1544 14.2342 29.1544H36.5138C36.6779 29.1544 36.8353 29.087 36.9514 28.9669C37.0674 28.8468 37.1326 28.684 37.1326 28.5142V23.3925C37.1326 23.2227 37.0674 23.0598 36.9514 22.9398C36.8353 22.8197 36.6779 22.7523 36.5138 22.7523ZM35.8949 27.874H33.4194V25.3131H32.1816V27.874H30.9439V26.5936H29.7061V27.874H28.4684V26.5936H27.2306V27.874H25.9929V25.3131H24.7551V27.874H23.5174V26.5936H22.2796V27.874H21.0419V26.5936H19.8041V27.874H18.5664V25.3131H17.3286V27.874H14.8531V24.0327H35.8949V27.874Z" fill="white"/>
<path d="M1.05636 21.6592C0.969809 21.5697 0.859548 21.5088 0.739515 21.4841C0.619483 21.4594 0.495068 21.4721 0.381999 21.5205C0.268931 21.569 0.172285 21.651 0.10428 21.7563C0.0362757 21.8615 -3.49035e-05 21.9853 -6.10352e-05 22.1119V38.7575C-6.10352e-05 38.9273 0.0651418 39.0901 0.181204 39.2102C0.297265 39.3303 0.454679 39.3977 0.618815 39.3977H16.7096C16.832 39.3977 16.9516 39.3601 17.0534 39.2898C17.1551 39.2194 17.2344 39.1195 17.2812 39.0025C17.3281 38.8855 17.3403 38.7568 17.3165 38.6327C17.2926 38.5085 17.2337 38.3944 17.1471 38.3049L1.05636 21.6592ZM1.23769 38.1173V23.6574L15.2156 38.1173H1.23769Z" fill="white"/>
<path d="M3.0944 36.8369H10.7332C10.8556 36.8369 10.9752 36.7994 11.0769 36.729C11.1787 36.6587 11.258 36.5587 11.3048 36.4417C11.3517 36.3247 11.3639 36.196 11.34 36.0719C11.3162 35.9477 11.2573 35.8336 11.1707 35.7441L3.53195 27.8413C3.4454 27.7517 3.33513 27.6908 3.2151 27.6661C3.09507 27.6414 2.97065 27.6541 2.85759 27.7025C2.74452 27.751 2.64787 27.833 2.57987 27.9383C2.51186 28.0435 2.47555 28.1673 2.47552 28.2939V36.1967C2.47552 36.3665 2.54073 36.5294 2.65679 36.6494C2.77285 36.7695 2.93026 36.8369 3.0944 36.8369ZM3.71328 29.8394L9.23922 35.5565H3.71328V29.8394Z" fill="white"/>
<path d="M8.04529 21.4718H11.7585V22.7522H8.04529V21.4718Z" fill="white"/>
<path d="M8.04529 24.0327H11.7585V25.3131H8.04529V24.0327Z" fill="white"/>
<path d="M8.04529 26.5935H11.7585V27.8739H8.04529V26.5935Z" fill="white"/>
<path d="M26.6995 14.423C26.8469 14.4011 26.9818 14.325 27.0793 14.2086C27.1768 14.0921 27.2305 13.9432 27.2305 13.7892V11.2283C27.2305 11.0743 27.1768 10.9254 27.0793 10.8089C26.9818 10.6925 26.8469 10.6164 26.6995 10.5945L25.0397 10.3493C24.9277 9.98827 24.7874 9.63733 24.6201 9.29998L25.6251 7.91263C25.7143 7.78939 25.7576 7.63703 25.747 7.48347C25.7365 7.32991 25.6728 7.18543 25.5676 7.07651L23.8174 5.26598C23.7121 5.15701 23.5723 5.091 23.4237 5.08007C23.2751 5.06913 23.1277 5.114 23.0085 5.20644L21.668 6.24679C21.342 6.07351 21.0027 5.92812 20.6537 5.81208L20.4167 4.09502C20.3955 3.94252 20.3219 3.80303 20.2094 3.70213C20.0969 3.60123 19.9529 3.54569 19.804 3.54572H17.3285C17.1796 3.54569 17.0356 3.60123 16.9231 3.70213C16.8105 3.80303 16.737 3.94252 16.7158 4.09502L16.4788 5.81208C16.1298 5.92812 15.7905 6.07351 15.4644 6.24679L14.124 5.20644C14.0048 5.114 13.8574 5.06913 13.7088 5.08007C13.5602 5.091 13.4204 5.15701 13.3151 5.26598L11.5649 7.07651C11.4597 7.18543 11.396 7.32991 11.3855 7.48347C11.3749 7.63703 11.4182 7.78939 11.5073 7.91263L12.5124 9.29998C12.3451 9.63733 12.2048 9.98827 12.0928 10.3493L10.433 10.5945C10.2856 10.6164 10.1507 10.6925 10.0532 10.8089C9.95564 10.9254 9.90196 11.0743 9.90198 11.2283V13.7892C9.90196 13.9432 9.95564 14.0921 10.0532 14.2086C10.1507 14.325 10.2856 14.4011 10.433 14.423L12.0928 14.6682C12.2048 15.0292 12.3451 15.3802 12.5124 15.7175L11.5073 17.1049C11.4182 17.2281 11.3749 17.3805 11.3855 17.534C11.396 17.6876 11.4597 17.8321 11.5649 17.941L13.3151 19.7515C13.4204 19.8605 13.5602 19.9265 13.7088 19.9374C13.8574 19.9484 14.0048 19.9035 14.124 19.8111L15.4644 18.7707C15.7905 18.944 16.1298 19.0894 16.4788 19.2054L16.7158 20.9225C16.737 21.075 16.8105 21.2145 16.9231 21.3154C17.0356 21.4163 17.1796 21.4718 17.3285 21.4718H19.804C19.9529 21.4718 20.0969 21.4163 20.2094 21.3154C20.3219 21.2145 20.3955 21.075 20.4167 20.9225L20.6537 19.2054C21.0027 19.0894 21.342 18.944 21.668 18.7707L23.0085 19.8111C23.1277 19.9035 23.2751 19.9484 23.4237 19.9374C23.5723 19.9265 23.7121 19.8605 23.8174 19.7515L25.5676 17.941C25.6728 17.8321 25.7365 17.6876 25.747 17.534C25.7576 17.3805 25.7143 17.2281 25.6251 17.1049L24.6201 15.7175C24.7874 15.3802 24.9277 15.0292 25.0397 14.6682L26.6995 14.423ZM24.4685 13.4588C24.347 13.4768 24.2335 13.5316 24.1423 13.6164C24.051 13.7012 23.9862 13.8122 23.956 13.9351C23.8263 14.4654 23.623 14.9734 23.3526 15.4435C23.2902 15.5525 23.2603 15.6781 23.2669 15.8046C23.2736 15.9312 23.3163 16.0528 23.3898 16.1541L24.3131 17.4288L23.3229 18.4532L22.0938 17.4986C21.9959 17.4224 21.8782 17.378 21.7558 17.371C21.6334 17.3641 21.5117 17.3949 21.4063 17.4595C20.9515 17.7392 20.4603 17.9499 19.9476 18.085C19.829 18.1164 19.7221 18.1835 19.6403 18.2777C19.5586 18.372 19.5057 18.4892 19.4884 18.6145L19.2674 20.1913H17.8651L17.6472 18.6145C17.6299 18.4892 17.577 18.372 17.4952 18.2777C17.4135 18.1835 17.3066 18.1164 17.188 18.085C16.6753 17.9499 16.1841 17.7392 15.7293 17.4595C15.6239 17.3949 15.5022 17.3641 15.3798 17.371C15.2574 17.378 15.1397 17.4224 15.0417 17.4986L13.8102 18.4538L12.82 17.4295L13.7433 16.1548C13.8168 16.0534 13.8595 15.9318 13.8662 15.8053C13.8728 15.6788 13.8429 15.5531 13.7805 15.4441C13.5101 14.9741 13.3068 14.466 13.1771 13.9358C13.1469 13.8128 13.0821 13.7019 12.9908 13.6171C12.8996 13.5322 12.7861 13.4774 12.6646 13.4595L11.1397 13.2341V11.7834L12.664 11.5587C12.7854 11.5407 12.899 11.4859 12.9902 11.4011C13.0815 11.3163 13.1463 11.2053 13.1765 11.0823C13.3062 10.5521 13.5095 10.044 13.7799 9.57399C13.8423 9.46503 13.8721 9.33935 13.8655 9.21284C13.8589 9.08634 13.8162 8.96471 13.7427 8.86335L12.8194 7.58868L13.8096 6.56434L15.0411 7.51954C15.1391 7.59577 15.2568 7.64017 15.3792 7.64713C15.5016 7.65408 15.6232 7.62327 15.7287 7.55859C16.1835 7.27889 16.6747 7.06824 17.1874 6.9331C17.306 6.90171 17.4129 6.83466 17.4946 6.74042C17.5763 6.64618 17.6292 6.52898 17.6466 6.40364L17.8651 4.82615H19.2674L19.4853 6.403C19.5026 6.52834 19.5555 6.64553 19.6373 6.73978C19.719 6.83402 19.8259 6.90107 19.9445 6.93246C20.4572 7.0676 20.9484 7.27825 21.4032 7.55795C21.5086 7.62263 21.6303 7.65344 21.7527 7.64649C21.8751 7.63953 21.9928 7.59513 22.0907 7.5189L23.3223 6.5637L24.3125 7.58804L23.3891 8.86271C23.3157 8.96407 23.2729 9.0857 23.2663 9.2122C23.2597 9.33871 23.2895 9.46439 23.352 9.57335C23.6224 10.0434 23.8256 10.5515 23.9554 11.0817C23.9856 11.2047 24.0504 11.3156 24.1416 11.4004C24.2329 11.4852 24.3464 11.5401 24.4678 11.558L25.9928 11.7834V13.2341L24.4685 13.4588Z" fill="white"/>
<path d="M18.5664 8.66736C17.832 8.66736 17.1141 8.89265 16.5034 9.31473C15.8928 9.73682 15.4169 10.3368 15.1358 11.0387C14.8548 11.7406 14.7812 12.5129 14.9245 13.2581C15.0678 14.0032 15.4214 14.6877 15.9407 15.2249C16.46 15.7621 17.1217 16.1279 17.842 16.2761C18.5623 16.4244 19.3089 16.3483 19.9874 16.0576C20.6659 15.7668 21.2458 15.2745 21.6539 14.6428C22.0619 14.0111 22.2797 13.2684 22.2797 12.5087C22.2787 11.4902 21.8871 10.5137 21.191 9.79357C20.4948 9.07341 19.5509 8.66838 18.5664 8.66736ZM18.5664 15.0695C18.0768 15.0695 17.5982 14.9193 17.1911 14.6379C16.784 14.3565 16.4667 13.9566 16.2793 13.4887C16.092 13.0207 16.043 12.5058 16.1385 12.0091C16.234 11.5123 16.4698 11.056 16.816 10.6979C17.1622 10.3397 17.6033 10.0958 18.0835 9.997C18.5637 9.89819 19.0614 9.9489 19.5137 10.1427C19.9661 10.3366 20.3527 10.6648 20.6247 11.0859C20.8967 11.507 21.0419 12.0022 21.0419 12.5087C21.0419 13.1878 20.7811 13.8392 20.3169 14.3195C19.8526 14.7997 19.223 15.0695 18.5664 15.0695Z" fill="white"/>
</svg>
