<svg width="38" height="39" viewBox="0 0 38 39" fill="none" xmlns="http://www.w3.org/2000/svg">
<path d="M32.8005 35.7839C32.8005 36.2933 32.6048 36.7818 32.2567 37.142C31.9085 37.5022 31.4362 37.7045 30.9438 37.7045H11.7587V38.9849H30.9438C31.7642 38.9839 32.5507 38.6463 33.1308 38.0463C33.7109 37.4462 34.0372 36.6325 34.0382 35.7839V23.6198H32.8005V35.7839Z" fill="white"/>
<path d="M8.04525 8.89481C8.04525 8.38542 8.24086 7.89689 8.58904 7.5367C8.93723 7.17651 9.40947 6.97416 9.90188 6.97416H13.2587C13.086 7.37743 12.9966 7.81354 12.9963 8.25459H10.5208C10.1925 8.25459 9.87765 8.38949 9.64553 8.62962C9.41341 8.86975 9.283 9.19543 9.283 9.53502V19.7785H10.5208V9.53502H12.9963V11.4557C12.9963 11.6255 13.0615 11.7883 13.1775 11.9084C13.2936 12.0284 13.451 12.0959 13.6151 12.0959H27.2304C27.3945 12.0959 27.552 12.0284 27.668 11.9084C27.7841 11.7883 27.8493 11.6255 27.8493 11.4557V9.53502H30.3248V13.3763H31.5625V9.53502C31.5625 9.19543 31.4321 8.86975 31.2 8.62962C30.9679 8.38949 30.6531 8.25459 30.3248 8.25459H27.8493C27.8489 7.81354 27.7595 7.37743 27.5869 6.97416H30.9437C31.4361 6.97416 31.9083 7.17651 32.2565 7.5367C32.6047 7.89689 32.8003 8.38542 32.8003 8.89481V12.0959H34.038V8.89481C34.0371 8.04614 33.7107 7.23252 33.1306 6.63242C32.5505 6.03232 31.764 5.69474 30.9437 5.69372H26.5923C26.063 5.28024 25.4182 5.05558 24.7549 5.05351H23.5171V3.77307C23.5171 2.92409 23.1911 2.10989 22.6108 1.50957C22.0305 0.909247 21.2434 0.571991 20.4228 0.571991C19.6021 0.571991 18.815 0.909247 18.2347 1.50957C17.6544 2.10989 17.3284 2.92409 17.3284 3.77307V5.05351H16.0906C15.4273 5.05558 14.7826 5.28024 14.2532 5.69372H9.90188C9.0815 5.69474 8.295 6.03232 7.7149 6.63242C7.13481 7.23252 6.80848 8.04614 6.8075 8.89481V19.7785H8.04525V8.89481ZM14.234 8.25459C14.234 7.7452 14.4296 7.25668 14.7778 6.89649C15.126 6.53629 15.5982 6.33394 16.0906 6.33394H17.9473C18.1114 6.33394 18.2688 6.26649 18.3849 6.14643C18.5009 6.02636 18.5661 5.86352 18.5661 5.69372V3.77307C18.5661 3.26369 18.7617 2.77516 19.1099 2.41497C19.4581 2.05478 19.9304 1.85242 20.4228 1.85242C20.9152 1.85242 21.3874 2.05478 21.7356 2.41497C22.0838 2.77516 22.2794 3.26369 22.2794 3.77307V5.69372C22.2794 5.86352 22.3446 6.02636 22.4607 6.14643C22.5767 6.26649 22.7341 6.33394 22.8983 6.33394H24.7549C25.2473 6.33394 25.7195 6.53629 26.0677 6.89649C26.4159 7.25668 26.6115 7.7452 26.6115 8.25459V8.89481H14.234V8.25459ZM14.234 10.1752H26.6115V10.8155H14.234V10.1752Z" fill="white"/>
<path d="M17.3284 36.4243H30.3248C30.6531 36.4243 30.9679 36.2894 31.2001 36.0493C31.4322 35.8092 31.5626 35.4835 31.5626 35.1439V26.1809H30.3248V30.0222H27.2304C26.738 30.0222 26.2658 30.2245 25.9176 30.5847C25.5694 30.9449 25.3738 31.4334 25.3738 31.9428V35.1439H17.3284V36.4243ZM30.3248 35.1439H27.4867L30.3248 32.2079V35.1439ZM26.6116 31.9428C26.6116 31.773 26.6768 31.6102 26.7928 31.4901C26.9089 31.3701 27.0663 31.3026 27.2304 31.3026H29.4497L26.6116 34.2386V31.9428Z" fill="white"/>
<path d="M19.8041 3.13281H21.0418V4.41325H19.8041V3.13281Z" fill="white"/>
<path d="M36.4332 14.1C35.8524 13.5006 35.0655 13.164 34.2451 13.164C33.4247 13.164 32.6379 13.5006 32.0571 14.1L21.1172 25.4177C21.0308 25.5069 20.9718 25.6205 20.9476 25.7442L20.5466 27.8179L19.3664 29.0388C19.0182 29.399 18.8226 29.8876 18.8226 30.397C18.8226 30.9064 19.0182 31.395 19.3664 31.7552C19.7146 32.1154 20.1869 32.3178 20.6794 32.3178C21.1718 32.3178 21.6441 32.1154 21.9923 31.7552L23.1725 30.5343L25.177 30.1195C25.2967 30.0945 25.4065 30.0334 25.4927 29.944L36.4332 18.6263C37.0124 18.0255 37.3376 17.2116 37.3376 16.3631C37.3376 15.5146 37.0124 14.7008 36.4332 14.1ZM30.3063 17.721L31.182 18.6263L23.7425 26.323L22.8674 25.4177L30.3063 17.721ZM21.1172 30.85C21.0011 30.9701 20.8436 31.0376 20.6794 31.0376C20.5151 31.0376 20.3576 30.9701 20.2415 30.85C20.1254 30.7298 20.0601 30.5669 20.0601 30.397C20.0601 30.2271 20.1254 30.0642 20.2415 29.944L21.1166 29.0388L21.9923 29.9447L21.1172 30.85ZM23.0704 29.2494L21.7887 27.9235L22.0808 26.4145L24.5291 28.9472L23.0704 29.2494ZM25.4927 28.1335L24.6176 27.2283L32.0577 19.5322L32.9334 20.4375L25.4927 28.1335ZM33.8079 19.5322L31.182 16.8158L31.6195 16.3631L34.2454 19.0796L33.8079 19.5322ZM35.5581 17.7217L35.1205 18.1743L32.4946 15.4579L32.9322 15.0052C33.1046 14.8269 33.3093 14.6854 33.5346 14.5889C33.7598 14.4923 34.0013 14.4426 34.2451 14.4426C34.489 14.4426 34.7304 14.4923 34.9557 14.5889C35.181 14.6854 35.3856 14.8269 35.5581 15.0052C35.7305 15.1836 35.8673 15.3953 35.9606 15.6284C36.0539 15.8614 36.1019 16.1112 36.1019 16.3635C36.1019 16.6157 36.0539 16.8655 35.9606 17.0985C35.8673 17.3316 35.7305 17.5433 35.5581 17.7217Z" fill="white"/>
<path d="M13.1065 37.3243C13.2257 37.4167 13.3731 37.4616 13.5217 37.4506C13.6703 37.4397 13.81 37.3737 13.9154 37.2647L15.6655 35.4542C15.7709 35.3452 15.8347 35.2006 15.8453 35.0469C15.8558 34.8932 15.8125 34.7407 15.7231 34.6174L14.718 33.2307C14.8851 32.8933 15.0254 32.5423 15.1376 32.1814L16.7975 31.9362C16.9449 31.9143 17.0797 31.8382 17.1773 31.7218C17.2748 31.6054 17.3285 31.4565 17.3285 31.3024V28.7415C17.3285 28.5875 17.2748 28.4386 17.1773 28.3221C17.0797 28.2057 16.9449 28.1296 16.7975 28.1077L15.1376 27.8625C15.0254 27.5016 14.8851 27.1507 14.718 26.8132L15.7231 25.4265C15.8125 25.3032 15.8558 25.1507 15.8453 24.997C15.8347 24.8433 15.7709 24.6987 15.6655 24.5897L13.9154 22.7792C13.81 22.6702 13.6703 22.6042 13.5217 22.5933C13.3731 22.5823 13.2257 22.6272 13.1065 22.7197L11.766 23.7594C11.4398 23.5866 11.1006 23.4414 10.7517 23.3253L10.5146 21.6082C10.4935 21.4557 10.4199 21.3162 10.3074 21.2153C10.1948 21.1144 10.0509 21.0589 9.90196 21.0589H7.42645C7.27753 21.0589 7.13359 21.1144 7.02105 21.2153C6.90851 21.3162 6.83491 21.4557 6.81376 21.6082L6.57673 23.3253C6.22784 23.4414 5.88862 23.5866 5.5624 23.7594L4.22191 22.7197C4.10273 22.6272 3.95532 22.5823 3.80674 22.5933C3.65815 22.6042 3.51837 22.6702 3.41304 22.7792L1.66286 24.5897C1.55753 24.6987 1.49372 24.8433 1.48315 24.997C1.47257 25.1507 1.51595 25.3032 1.6053 25.4265L2.61036 26.8132C2.44332 27.1507 2.30299 27.5016 2.19076 27.8625L0.530935 28.1077C0.383519 28.1296 0.248672 28.2057 0.151137 28.3221C0.0536017 28.4386 -8.08874e-05 28.5875 -6.10296e-05 28.7415V31.3024C-8.08874e-05 31.4565 0.0536017 31.6054 0.151137 31.7218C0.248672 31.8382 0.383519 31.9143 0.530935 31.9362L2.19076 32.1814C2.30299 32.5423 2.44332 32.8933 2.61036 33.2307L1.6053 34.6174C1.51595 34.7407 1.47257 34.8932 1.48315 35.0469C1.49372 35.2006 1.55753 35.3452 1.66286 35.4542L3.41304 37.2647C3.51837 37.3737 3.65815 37.4397 3.80674 37.4506C3.95532 37.4616 4.10273 37.4167 4.22191 37.3243L5.5624 36.2846C5.88862 36.4574 6.22784 36.6025 6.57673 36.7186L6.81376 38.4357C6.83491 38.5882 6.90851 38.7277 7.02105 38.8286C7.13359 38.9295 7.27753 38.985 7.42645 38.985H9.90196C10.0509 38.985 10.1948 38.9295 10.3074 38.8286C10.4199 38.7277 10.4935 38.5882 10.5146 38.4357L10.7517 36.7186C11.1006 36.6025 11.4398 36.4574 11.766 36.2846L13.1065 37.3243ZM10.0431 35.5957C9.92428 35.627 9.81717 35.6941 9.73531 35.7885C9.65345 35.8829 9.60052 36.0003 9.58323 36.1258L9.36539 37.7046H7.96302L7.74517 36.1277C7.72789 36.0022 7.67496 35.8848 7.5931 35.7904C7.51123 35.696 7.40412 35.6289 7.28535 35.5976C6.77286 35.4631 6.28179 35.2528 5.82728 34.9734C5.72188 34.9086 5.60026 34.8777 5.47785 34.8845C5.35544 34.8914 5.23775 34.9357 5.1397 35.0118L3.90814 35.967L2.91794 34.9427L3.84068 33.6712C3.91428 33.5698 3.95709 33.448 3.9637 33.3214C3.97031 33.1948 3.94042 33.0689 3.87782 32.9599C3.60768 32.4897 3.40446 31.9817 3.27441 31.4516C3.24414 31.3287 3.17927 31.2179 3.08804 31.1332C2.99681 31.0485 2.88333 30.9938 2.76198 30.9759L1.23769 30.7473V29.2966L2.76198 29.0712C2.88333 29.0534 2.99681 28.9986 3.08804 28.9139C3.17927 28.8292 3.24414 28.7184 3.27441 28.5956C3.40446 28.0654 3.60768 27.5574 3.87782 27.0872C3.94042 26.9782 3.97031 26.8524 3.9637 26.7257C3.95709 26.5991 3.91428 26.4774 3.84068 26.3759L2.91732 25.1019L3.90752 24.0776L5.13909 25.0328C5.23713 25.1089 5.35482 25.1532 5.47723 25.16C5.59964 25.1669 5.72126 25.1359 5.82666 25.0712C6.28117 24.7917 6.77224 24.5815 7.28473 24.447C7.4035 24.4156 7.51061 24.3485 7.59248 24.2542C7.67434 24.1598 7.72727 24.0424 7.74455 23.9169L7.96302 22.3394H9.36539L9.58323 23.9162C9.60052 24.0417 9.65345 24.1591 9.73531 24.2535C9.81717 24.3479 9.92428 24.415 10.0431 24.4463C10.5555 24.5808 11.0466 24.7911 11.5011 25.0705C11.6065 25.1353 11.7281 25.1662 11.8506 25.1594C11.973 25.1525 12.0907 25.1082 12.1887 25.0321L13.4203 24.0769L14.4105 25.1013L13.4871 26.3753C13.4135 26.4767 13.3707 26.5985 13.3641 26.7251C13.3575 26.8517 13.3874 26.9775 13.45 27.0866C13.7201 27.5568 13.9233 28.0648 14.0534 28.5949C14.0837 28.7178 14.1485 28.8286 14.2397 28.9133C14.331 28.998 14.4445 29.0527 14.5658 29.0706L16.0907 29.2966V30.7473L14.5664 30.9727C14.4451 30.9906 14.3316 31.0453 14.2404 31.13C14.1491 31.2147 14.0843 31.3255 14.054 31.4484C13.924 31.9785 13.7207 32.4865 13.4506 32.9567C13.388 33.0657 13.3581 33.1916 13.3647 33.3182C13.3713 33.4448 13.4141 33.5666 13.4877 33.668L14.4111 34.942L13.4209 35.9664L12.1918 35.0118C12.0938 34.9357 11.9761 34.8914 11.8537 34.8845C11.7312 34.8777 11.6096 34.9086 11.5042 34.9734C11.0487 35.2531 10.5566 35.4634 10.0431 35.5976V35.5957Z" fill="white"/>
<path d="M8.66437 26.1809C7.92996 26.1809 7.21204 26.4062 6.60139 26.8283C5.99075 27.2503 5.51481 27.8503 5.23377 28.5522C4.95272 29.2541 4.87918 30.0264 5.02246 30.7716C5.16574 31.5167 5.51939 32.2012 6.0387 32.7384C6.55801 33.2756 7.21965 33.6414 7.93995 33.7897C8.66025 33.9379 9.40686 33.8618 10.0854 33.5711C10.7639 33.2803 11.3438 32.788 11.7518 32.1563C12.1598 31.5246 12.3776 30.7819 12.3776 30.0222C12.3766 29.0037 11.9851 28.0273 11.289 27.3071C10.5928 26.5869 9.64888 26.1819 8.66437 26.1809ZM8.66437 32.583C8.17476 32.583 7.69615 32.4328 7.28905 32.1515C6.88196 31.8701 6.56467 31.4701 6.3773 31.0022C6.18994 30.5342 6.14091 30.0193 6.23643 29.5226C6.33195 29.0258 6.56772 28.5695 6.91392 28.2114C7.26013 27.8532 7.70122 27.6093 8.18142 27.5105C8.66162 27.4117 9.15936 27.4624 9.6117 27.6562C10.064 27.8501 10.4507 28.1783 10.7227 28.5994C10.9947 29.0206 11.1399 29.5157 11.1399 30.0222C11.1399 30.7014 10.8791 31.3527 10.4148 31.833C9.95057 32.3132 9.32091 32.583 8.66437 32.583Z" fill="white"/>
<path d="M8.04529 23.6198H9.28304V24.9002H8.04529V23.6198Z" fill="white"/>
<path d="M3.84692 25.9455L4.72214 25.0401L5.59735 25.9455L4.72214 26.851L3.84692 25.9455Z" fill="white"/>
<path d="M2.47552 29.3819H3.71328V30.6624H2.47552V29.3819Z" fill="white"/>
<path d="M3.84625 34.0936L4.72148 33.1882L5.59671 34.0936L4.72148 34.999L3.84625 34.0936Z" fill="white"/>
<path d="M8.04529 35.1438H9.28304V36.4242H8.04529V35.1438Z" fill="white"/>
<path d="M11.7228 34.0946L12.598 33.1892L13.4732 34.0946L12.598 35L11.7228 34.0946Z" fill="white"/>
<path d="M13.6154 29.3819H14.8531V30.6624H13.6154V29.3819Z" fill="white"/>
<path d="M11.7234 25.9468L12.5986 25.0414L13.4738 25.9468L12.5986 26.8522L11.7234 25.9468Z" fill="white"/>
<path d="M16.0909 15.9373C16.2477 15.9372 16.4038 15.9577 16.5557 15.9981L16.8651 14.7574C16.6121 14.6906 16.352 14.6568 16.0909 14.6569C15.5121 14.6569 14.945 14.8249 14.4539 15.1417C13.9628 15.4585 13.5674 15.9114 13.3127 16.4491C13.0579 16.9867 12.954 17.5874 13.0128 18.183C13.0716 18.7787 13.2907 19.3453 13.6452 19.8186C13.9997 20.2919 14.4754 20.6528 15.0182 20.8604C15.5611 21.068 16.1493 21.114 16.7162 20.9931C17.283 20.8721 17.8057 20.5892 18.2249 20.1763C18.6441 19.7635 18.9429 19.2373 19.0875 18.6576L17.8893 18.3375C17.8026 18.6853 17.6234 19.001 17.3719 19.2488C17.1205 19.4965 16.8069 19.6663 16.4668 19.7389C16.1267 19.8116 15.7738 19.784 15.448 19.6595C15.1223 19.535 14.8368 19.3185 14.6241 19.0346C14.4114 18.7507 14.2799 18.4107 14.2445 18.0534C14.2092 17.696 14.2714 17.3356 14.4242 17.013C14.577 16.6904 14.8141 16.4186 15.1088 16.2284C15.4034 16.0383 15.7436 15.9374 16.0909 15.9373Z" fill="white"/>
<path d="M15.6495 18.0452L18.7434 14.8446L19.6185 15.7499L16.5246 18.9505L15.6495 18.0452Z" fill="white"/>
<path d="M20.423 15.9373H21.6607V17.2177H20.423V15.9373Z" fill="white"/>
<path d="M22.8986 15.9373H25.3741V17.2177H22.8986V15.9373Z" fill="white"/>
<path d="M20.423 18.4981H24.1362V19.7785H20.423V18.4981Z" fill="white"/>
</svg>
