<svg width="38" height="35" viewBox="0 0 38 35" fill="none" xmlns="http://www.w3.org/2000/svg">
<path d="M9.93504 19.2066H12.4105C12.5747 19.2066 12.7321 19.1391 12.8482 19.0191C12.9642 18.899 13.0294 18.7362 13.0294 18.5664V16.0055C13.0294 15.8357 12.9642 15.6729 12.8482 15.5528C12.7321 15.4327 12.5747 15.3653 12.4105 15.3653H9.93504C9.7709 15.3653 9.61349 15.4327 9.49743 15.5528C9.38136 15.6729 9.31616 15.8357 9.31616 16.0055V18.5664C9.31616 18.7362 9.38136 18.899 9.49743 19.0191C9.61349 19.1391 9.7709 19.2066 9.93504 19.2066ZM10.5539 16.6457H11.7917V17.9262H10.5539V16.6457Z" fill="white"/>
<path d="M16.1166 15.3651C16.2807 15.365 16.4381 15.2976 16.5541 15.1775L17.6093 14.0846H18.5995V12.8042H17.3543C17.1902 12.8042 17.0328 12.8717 16.9168 12.9918L15.8603 14.0846H15.5051V13.4444C15.5051 13.2746 15.4399 13.1118 15.3238 12.9917C15.2078 12.8717 15.0504 12.8042 14.8862 12.8042H14.2674V12.431L15.3238 11.3375C15.3814 11.2779 15.4271 11.2071 15.4582 11.1292C15.4893 11.0513 15.5052 10.9678 15.5051 10.8836V9.60312H14.2674V10.6198L13.2109 11.7158C13.0959 11.8348 13.0308 11.9958 13.0296 12.164V12.8042H11.7918V9.60312H10.5541V12.8042H9.31634V12.1845C9.31631 12.0147 9.25108 11.8519 9.13501 11.7318L8.07859 10.639V9.60312H6.84084V10.904C6.84088 11.0738 6.9061 11.2366 7.02217 11.3567L8.07859 12.4495V12.8042H7.45972C7.29558 12.8042 7.13817 12.8717 7.0221 12.9917C6.90604 13.1118 6.84084 13.2746 6.84084 13.4444V14.0846H5.99298L5.54553 13.1582C5.49412 13.0518 5.41507 12.9623 5.31723 12.8998C5.21939 12.8372 5.10665 12.8041 4.99164 12.8042H3.74646V14.0846H4.60917L5.05724 15.011C5.1086 15.1174 5.18756 15.2068 5.28528 15.2693C5.383 15.3319 5.49561 15.365 5.61051 15.3651H6.84084V16.6455H3.74646V17.9259H6.84084V19.2064H5.61051C5.49561 19.2064 5.383 19.2396 5.28528 19.3021C5.18756 19.3646 5.1086 19.4541 5.05724 19.5604L4.60917 20.4868H3.74646V21.7672H4.99164C5.10665 21.7673 5.21939 21.7342 5.31723 21.6717C5.41507 21.6091 5.49412 21.5196 5.54553 21.4132L5.99298 20.4868H6.84084V21.127C6.84084 21.2968 6.90604 21.4597 7.0221 21.5797C7.13817 21.6998 7.29558 21.7672 7.45972 21.7672H8.07859V22.1219L7.02217 23.2148C6.9061 23.3348 6.84088 23.4976 6.84084 23.6674V24.9683H8.07859V23.9324L9.13501 22.8396C9.25108 22.7196 9.31631 22.5567 9.31634 22.387V21.7672H10.5541V24.9683H11.7918V21.7672H13.0296V22.4075C13.0296 22.5772 13.0949 22.74 13.2109 22.8601L14.2674 23.9517V24.9683H15.5051V23.6879C15.5051 23.5181 15.4398 23.3553 15.3238 23.2353L14.2674 22.1405V21.7672H14.8862C15.0504 21.7672 15.2078 21.6998 15.3238 21.5797C15.4399 21.4597 15.5051 21.2968 15.5051 21.127V20.4868H15.8603L16.9168 21.5797C17.0328 21.6997 17.1902 21.7672 17.3543 21.7672H18.5995V20.4868H17.6093L16.5572 19.394C16.4994 19.3341 16.4307 19.2867 16.355 19.2545C16.2794 19.2223 16.1983 19.206 16.1166 19.2064H15.5051V17.9259H18.5995V16.6455H15.5051V15.3651H16.1166ZM14.2674 20.4868H8.07859V14.0846H14.2674V20.4868Z" fill="white"/>
<path d="M32.2998 17.9173C32.4481 18.5214 32.8043 19.0489 33.3016 19.4008C33.7989 19.7526 34.4032 19.9048 35.0013 19.8287C35.5993 19.7527 36.1499 19.4536 36.5501 18.9876C36.9502 18.5215 37.1722 17.9206 37.1746 17.2973C37.1771 16.674 36.9596 16.0712 36.5631 15.6018C36.1667 15.1325 35.6183 14.8289 35.0209 14.7479C34.4235 14.6669 33.818 14.814 33.318 15.1618C32.818 15.5095 32.4577 16.034 32.3048 16.6369H22.279C22.2131 15.3187 21.9278 14.0222 21.4354 12.8045H26.0256C26.1898 12.8045 26.3472 12.737 26.4632 12.617L28.7574 10.2437H30.4457C30.5963 10.8472 30.9545 11.3731 31.4532 11.723C31.9519 12.0728 32.5568 12.2225 33.1545 12.1439C33.7522 12.0654 34.3017 11.764 34.7 11.2963C35.0983 10.8287 35.3181 10.2268 35.3181 9.60346C35.3181 8.98017 35.0983 8.37826 34.7 7.91058C34.3017 7.4429 33.7522 7.14155 33.1545 7.06301C32.5568 6.98447 31.9519 7.13414 31.4532 7.48396C30.9545 7.83378 30.5963 8.35974 30.4457 8.96325H28.5011C28.337 8.96328 28.1796 9.03076 28.0636 9.15083L25.7694 11.5241H20.8054C19.9428 9.98376 18.7492 8.66941 17.3168 7.68281H24.7879C24.952 7.68278 25.1094 7.6153 25.2254 7.49523L27.8705 4.75894C28.2478 4.99429 28.6795 5.11972 29.12 5.12195C29.6096 5.12195 30.0882 4.97176 30.4953 4.69036C30.9024 4.40897 31.2197 4.00902 31.4071 3.54108C31.5945 3.07315 31.6435 2.55824 31.548 2.06148C31.4524 1.56472 31.2167 1.10842 30.8705 0.750275C30.5243 0.392131 30.0832 0.148233 29.603 0.0494211C29.1228 -0.0493905 28.625 0.0013232 28.1727 0.195149C27.7203 0.388975 27.3337 0.717208 27.0617 1.13834C26.7897 1.55947 26.6445 2.05459 26.6445 2.56108C26.6467 3.0168 26.7679 3.46343 26.9954 3.85368L24.5317 6.40238H14.8011C13.1223 5.79802 11.3282 5.61801 9.56845 5.87738C7.80873 6.13675 6.13455 6.82797 4.68577 7.8933C3.23699 8.95863 2.05568 10.3671 1.24051 12.0012C0.425348 13.6352 0 15.4473 0 17.2861C0 19.1248 0.425348 20.9369 1.24051 22.571C2.05568 24.205 3.23699 25.6135 4.68577 26.6788C6.13455 27.7442 7.80873 28.4354 9.56845 28.6947C11.3282 28.9541 13.1223 28.7741 14.8011 28.1697H24.5317L26.9954 30.7184C26.7679 31.1087 26.6467 31.5553 26.6445 32.011C26.6445 32.5175 26.7897 33.0127 27.0617 33.4338C27.3337 33.8549 27.7203 34.1832 28.1727 34.377C28.625 34.5708 29.1228 34.6215 29.603 34.5227C30.0832 34.4239 30.5243 34.18 30.8705 33.8218C31.2167 33.4637 31.4524 33.0074 31.548 32.5106C31.6435 32.0139 31.5945 31.499 31.4071 31.031C31.2197 30.5631 30.9024 30.1632 30.4953 29.8818C30.0882 29.6004 29.6096 29.4502 29.12 29.4502C28.6795 29.4524 28.2478 29.5778 27.8705 29.8132L25.2254 27.0769C25.1094 26.9568 24.952 26.8893 24.7879 26.8893H17.3168C18.7492 25.9027 19.9428 24.5884 20.8054 23.048H25.7694L28.0636 25.4213C28.1796 25.5414 28.337 25.6088 28.5011 25.6089H30.4457C30.5963 26.2124 30.9545 26.7383 31.4532 27.0882C31.9519 27.438 32.5568 27.5877 33.1545 27.5091C33.7522 27.4306 34.3017 27.1292 34.7 26.6615C35.0983 26.1939 35.3181 25.592 35.3181 24.9687C35.3181 24.3454 35.0983 23.7435 34.7 23.2758C34.3017 22.8081 33.7522 22.5067 33.1545 22.4282C32.5568 22.3497 31.9519 22.4993 31.4532 22.8492C30.9545 23.199 30.5963 23.7249 30.4457 24.3284H28.7574L26.4632 21.9552C26.3472 21.8351 26.1898 21.7676 26.0256 21.7676H21.4354C21.9308 20.5445 22.217 19.2417 22.2814 17.9173H32.2998ZM34.6899 16.0056C34.9347 16.0056 35.174 16.0807 35.3776 16.2214C35.5811 16.3621 35.7398 16.5621 35.8334 16.7961C35.9271 17.03 35.9516 17.2875 35.9039 17.5359C35.8561 17.7842 35.7382 18.0124 35.5651 18.1915C35.392 18.3705 35.1715 18.4925 34.9314 18.5419C34.6913 18.5913 34.4424 18.5659 34.2162 18.469C33.9901 18.3721 33.7968 18.208 33.6608 17.9974C33.5247 17.7869 33.4522 17.5393 33.4522 17.2861C33.4522 16.9465 33.5826 16.6208 33.8147 16.3807C34.0468 16.1405 34.3616 16.0056 34.6899 16.0056ZM32.8333 8.32303C33.0781 8.32303 33.3174 8.39813 33.5209 8.53882C33.7245 8.67952 33.8831 8.87949 33.9768 9.11346C34.0705 9.34743 34.095 9.60488 34.0472 9.85326C33.9995 10.1016 33.8816 10.3298 33.7085 10.5089C33.5354 10.6879 33.3149 10.8099 33.0748 10.8593C32.8347 10.9087 32.5858 10.8833 32.3596 10.7864C32.1334 10.6895 31.9401 10.5254 31.8041 10.3148C31.6681 10.1043 31.5955 9.85671 31.5955 9.60346C31.5955 9.26387 31.7259 8.93819 31.9581 8.69806C32.1902 8.45793 32.505 8.32303 32.8333 8.32303ZM29.12 1.28065C29.3648 1.28065 29.6041 1.35574 29.8077 1.49644C30.0112 1.63714 30.1699 1.83711 30.2636 2.07108C30.3572 2.30505 30.3818 2.5625 30.334 2.81088C30.2862 3.05926 30.1683 3.28741 29.9952 3.46648C29.8221 3.64556 29.6016 3.76751 29.3615 3.81691C29.1214 3.86632 28.8725 3.84096 28.6464 3.74405C28.4202 3.64713 28.2269 3.48302 28.0909 3.27245C27.9549 3.06189 27.8823 2.81433 27.8823 2.56108C27.8823 2.22149 28.0127 1.89581 28.2448 1.65568C28.4769 1.41555 28.7917 1.28065 29.12 1.28065ZM30.3578 32.011C30.3578 32.2643 30.2852 32.5118 30.1492 32.7224C30.0132 32.933 29.8199 33.0971 29.5937 33.194C29.3675 33.2909 29.1186 33.3163 28.8785 33.2669C28.6384 33.2175 28.4179 33.0955 28.2448 32.9164C28.0717 32.7374 27.9538 32.5092 27.9061 32.2608C27.8583 32.0125 27.8828 31.755 27.9765 31.521C28.0702 31.2871 28.2288 31.0871 28.4324 30.9464C28.6359 30.8057 28.8752 30.7306 29.12 30.7306C29.4483 30.7306 29.7631 30.8655 29.9952 31.1056C30.2274 31.3458 30.3578 31.6715 30.3578 32.011ZM32.8333 23.6882C33.0781 23.6882 33.3174 23.7633 33.5209 23.904C33.7245 24.0447 33.8831 24.2447 33.9768 24.4787C34.0705 24.7126 34.095 24.9701 34.0472 25.2185C33.9995 25.4668 33.8816 25.695 33.7085 25.8741C33.5354 26.0531 33.3149 26.1751 33.0748 26.2245C32.8347 26.2739 32.5858 26.2485 32.3596 26.1516C32.1334 26.0547 31.9401 25.8906 31.8041 25.68C31.6681 25.4695 31.5955 25.2219 31.5955 24.9687C31.5955 24.6291 31.7259 24.3034 31.9581 24.0633C32.1902 23.8231 32.505 23.6882 32.8333 23.6882ZM11.1726 27.5295C9.21418 27.5295 7.29973 26.9288 5.67135 25.8032C4.04297 24.6776 2.77381 23.0778 2.02435 21.2061C1.27489 19.3343 1.07879 17.2747 1.46087 15.2877C1.84294 13.3006 2.78601 11.4754 4.17084 10.0428C5.55566 8.61026 7.32003 7.63467 9.24083 7.23942C11.1616 6.84418 13.1526 7.04703 14.962 7.82233C16.7713 8.59764 18.3178 9.91057 19.4058 11.5951C20.4939 13.2796 21.0746 15.2601 21.0746 17.2861C21.0715 20.0018 20.0273 22.6054 18.171 24.5257C16.3146 26.4461 13.7978 27.5263 11.1726 27.5295Z" fill="white"/>
<path d="M8.07837 3.20105H14.2671V4.48148H8.07837V3.20105Z" fill="white"/>
<path d="M15.5049 3.20105H16.7426V4.48148H15.5049V3.20105Z" fill="white"/>
<path d="M17.9805 3.20105H19.2182V4.48148H17.9805V3.20105Z" fill="white"/>
<path d="M11.1729 3.05176e-05H17.3616V1.28046H11.1729V3.05176e-05Z" fill="white"/>
<path d="M18.5994 3.05176e-05H19.8371V1.28046H18.5994V3.05176e-05Z" fill="white"/>
<path d="M3.74646 33.2911H9.93522V34.5715H3.74646V33.2911Z" fill="white"/>
<path d="M11.1729 33.2911H12.4106V34.5715H11.1729V33.2911Z" fill="white"/>
<path d="M13.6482 33.2911H14.8859V34.5715H13.6482V33.2911Z" fill="white"/>
<path d="M6.84058 30.09H13.0293V31.3705H6.84058V30.09Z" fill="white"/>
<path d="M14.2671 30.09H15.5048V31.3705H14.2671V30.09Z" fill="white"/>
</svg>
