<svg width="31" height="39" viewBox="0 0 31 39" fill="none" xmlns="http://www.w3.org/2000/svg">
<path d="M30.0121 35.1572L26.4269 31.3159C26.3149 31.1958 26.1629 31.1284 26.0044 31.1283H8.07838V29.8479C8.07838 29.3385 7.88952 28.85 7.55334 28.4898C7.21716 28.1296 6.76121 27.9272 6.28578 27.9272H2.70057C2.54209 27.9272 2.3901 27.8598 2.27804 27.7397C2.16598 27.6197 2.10303 27.4568 2.10303 27.287C2.10303 27.1172 2.16598 26.9544 2.27804 26.8343C2.3901 26.7143 2.54209 26.6468 2.70057 26.6468H6.28578C6.76121 26.6468 7.21716 26.4445 7.55334 26.0843C7.88952 25.7241 8.07838 25.2356 8.07838 24.7262V23.4457H12.2611V26.0066H9.87099C9.71251 26.0066 9.56053 26.074 9.44847 26.1941C9.33641 26.3142 9.27346 26.477 9.27346 26.6468V29.2077C9.27346 29.3775 9.33641 29.5403 9.44847 29.6604C9.56053 29.7804 9.71251 29.8479 9.87099 29.8479H21.8217C21.9802 29.8479 22.1322 29.7804 22.2442 29.6604C22.3563 29.5403 22.4192 29.3775 22.4192 29.2077V26.6468C22.4192 26.477 22.3563 26.3142 22.2442 26.1941C22.1322 26.074 21.9802 26.0066 21.8217 26.0066H19.4316V23.4457H27.7971C28.2725 23.4457 28.7284 23.2434 29.0646 22.8832C29.4008 22.523 29.5897 22.0345 29.5897 21.5251V4.87945C29.5897 4.37006 29.4008 3.88154 29.0646 3.52135C28.7284 3.16115 28.2725 2.9588 27.7971 2.9588H23.6143V4.23923H27.7971C27.9555 4.23923 28.1075 4.30669 28.2196 4.42675C28.3316 4.54681 28.3946 4.70965 28.3946 4.87945V18.324H3.2981V4.87945C3.2981 4.70965 3.36106 4.54681 3.47312 4.42675C3.58517 4.30669 3.73716 4.23923 3.89564 4.23923H8.07838V2.9588H3.89564C3.42021 2.9588 2.96425 3.16115 2.62807 3.52135C2.29189 3.88154 2.10303 4.37006 2.10303 4.87945V21.5251C2.10303 22.0345 2.29189 22.523 2.62807 22.8832C2.96425 23.2434 3.42021 23.4457 3.89564 23.4457H6.88331V24.7262C6.88331 24.896 6.82036 25.0588 6.7083 25.1789C6.59624 25.2989 6.44425 25.3664 6.28578 25.3664H2.70057C2.22514 25.3664 1.76918 25.5687 1.433 25.9289C1.09682 26.2891 0.907959 26.7776 0.907959 27.287C0.907959 27.7964 1.09682 28.2849 1.433 28.6451C1.76918 29.0053 2.22514 29.2077 2.70057 29.2077H6.28578C6.44425 29.2077 6.59624 29.2751 6.7083 29.3952C6.82036 29.5153 6.88331 29.6781 6.88331 29.8479V31.1283H5.68824C5.52978 31.1284 5.37782 31.1958 5.26579 31.3159L1.68057 35.1572C1.56851 35.2772 1.50553 35.4401 1.50549 35.6098V37.5305C1.50549 37.8701 1.6314 38.1958 1.85552 38.4359C2.07964 38.676 2.38361 38.8109 2.70057 38.8109H28.9921C29.3091 38.8109 29.6131 38.676 29.8372 38.4359C30.0613 38.1958 30.1872 37.8701 30.1872 37.5305V35.6098C30.1872 35.4401 30.1242 35.2772 30.0121 35.1572ZM21.2242 28.5675H10.4685V27.287H21.2242V28.5675ZM18.2365 26.0066H13.4562V23.4457H18.2365V26.0066ZM3.2981 21.5251V19.6044H28.3946V21.5251C28.3946 21.6949 28.3316 21.8577 28.2196 21.9778C28.1075 22.0978 27.9555 22.1653 27.7971 22.1653H3.89564C3.73716 22.1653 3.58517 22.0978 3.47312 21.9778C3.36106 21.8577 3.2981 21.6949 3.2981 21.5251ZM5.93562 32.4088H25.7571L28.1472 34.9696H3.54548L5.93562 32.4088ZM2.70057 37.5305V36.2501H28.9921V37.5305H2.70057Z" fill="white"/>
<path d="M6.28564 33.0491H7.48072V34.3296H6.28564V33.0491Z" fill="white"/>
<path d="M8.67596 33.0491H9.87104V34.3296H8.67596V33.0491Z" fill="white"/>
<path d="M21.8217 33.0491H23.0167V34.3296H21.8217V33.0491Z" fill="white"/>
<path d="M11.066 33.0491H20.6266V34.3296H11.066V33.0491Z" fill="white"/>
<path d="M24.2117 33.0491H25.4068V34.3296H24.2117V33.0491Z" fill="white"/>
<path d="M24.8093 20.2447H26.0044V21.5251H24.8093V20.2447Z" fill="white"/>
<path d="M8.07837 10.0012C8.07834 10.1356 8.1178 10.2666 8.19116 10.3757C8.26452 10.4847 8.36805 10.5663 8.48708 10.6088L9.87098 11.103V12.5621C9.87101 12.7318 9.93399 12.8947 10.0461 13.0147L10.6436 13.6549C10.7556 13.775 10.9076 13.8425 11.066 13.8425H11.9414L12.9572 15.4783C13.012 15.5662 13.0862 15.6382 13.1733 15.6879C13.2603 15.7376 13.3575 15.7635 13.4562 15.7631H14.6513C14.8097 15.7631 14.9617 15.6956 15.0737 15.5756L15.8463 14.7478L16.6189 15.5756C16.731 15.6956 16.8829 15.7631 17.0414 15.7631H18.2365C18.3348 15.7632 18.4317 15.7372 18.5184 15.6875C18.6051 15.6378 18.679 15.5659 18.7336 15.4783L19.7512 13.8425H20.6266C20.7851 13.8425 20.937 13.775 21.0491 13.6549L21.6466 13.0147C21.7587 12.8947 21.8217 12.7318 21.8217 12.5621V11.103L23.2056 10.6088C23.3246 10.5663 23.4281 10.4847 23.5015 10.3757C23.5749 10.2666 23.6143 10.1356 23.6143 10.0012V7.44033C23.6143 7.32136 23.5835 7.20472 23.5251 7.10351C23.4667 7.0023 23.3832 6.92052 23.2839 6.86734L22.4192 6.40446V4.23925C22.4192 4.09644 22.3746 3.95775 22.2925 3.84522C22.2104 3.73269 22.0956 3.6528 21.9663 3.61824L20.0291 3.09902V2.3186C20.029 2.14882 19.9661 1.986 19.854 1.86597L18.6589 0.585533C18.5469 0.46546 18.3949 0.397985 18.2365 0.397949H17.0414C16.9431 0.397933 16.8462 0.423928 16.7595 0.473626C16.6728 0.523324 16.5988 0.59519 16.5443 0.682846L15.8463 1.80643L15.1484 0.682846C15.0938 0.59519 15.0199 0.523324 14.9332 0.473626C14.8464 0.423928 14.7496 0.397933 14.6513 0.397949H13.4562C13.2977 0.397985 13.1458 0.46546 13.0337 0.585533L11.8387 1.86597C11.7266 1.986 11.6636 2.14882 11.6636 2.3186V3.09902L9.72637 3.61824C9.59705 3.6528 9.48222 3.73269 9.40015 3.84522C9.31808 3.95775 9.27348 4.09644 9.27344 4.23925V6.40446L8.40881 6.86734C8.30948 6.92052 8.22594 7.0023 8.16758 7.10351C8.10921 7.20472 8.07832 7.32136 8.07837 7.44033V10.0012ZM17.3611 1.67838H17.9891L18.834 2.58365V3.33398L17.814 4.42683C17.7019 4.54687 17.639 4.70968 17.6389 4.87947V6.80012H18.834V5.14451L19.615 4.30775L21.2241 4.73926V6.1599H20.6266V7.44033H21.6807L22.4192 7.83599V9.5396L21.3855 9.90901L20.6266 9.09593V8.72077H19.4315V9.36098C19.4316 9.53076 19.4946 9.69358 19.6066 9.81361L20.6266 10.9065V12.297L20.3792 12.5621H19.4315C19.3332 12.562 19.2364 12.588 19.1496 12.6377C19.0629 12.6874 18.989 12.7593 18.9344 12.847L17.9168 14.4827H17.2888L16.4439 13.5774V3.15088L17.3611 1.67838ZM9.27344 7.83599L10.012 7.44033H11.066V6.1599H10.4685V4.73926L12.0777 4.30775L12.8587 5.14451V6.80012H14.0537V4.87947C14.0537 4.70968 13.9907 4.54687 13.8786 4.42683L12.8587 3.33398V2.58365L13.7036 1.67838H14.3316L15.2488 3.15088V13.5774L14.4039 14.4827H13.7759L12.7601 12.847C12.7053 12.759 12.6311 12.687 12.544 12.6373C12.457 12.5876 12.3598 12.5617 12.2611 12.5621H11.3134L11.066 12.297V10.9065L12.086 9.81361C12.1981 9.69358 12.2611 9.53076 12.2611 9.36098V8.72077H11.066V9.09593L10.3072 9.90901L9.27344 9.5396V7.83599Z" fill="white"/>
<path d="M13.6314 12.3743L14.4763 11.4691L14.0538 11.0164V9.36084H12.8588V11.2815C12.8588 11.4513 12.9218 11.6141 13.0338 11.7341L13.6314 12.3743Z" fill="white"/>
<path d="M18.659 11.7341C18.7711 11.6141 18.8341 11.4513 18.8341 11.2815V9.36084H17.639V11.0164L17.2166 11.4691L18.0615 12.3743L18.659 11.7341Z" fill="white"/>
</svg>
